<?xml version="1.0" encoding="utf-8"?>
<!-- Generator: Adobe Illustrator 24.0.1, SVG Export Plug-In . SVG Version: 6.00 Build 0)  -->
<svg version="1.1" id="Layer_1" xmlns="http://www.w3.org/2000/svg" xmlns:xlink="http://www.w3.org/1999/xlink" x="0px" y="0px"
	 viewBox="0 0 1080 250" enable-background="new 0 0 1080 250" xml:space="preserve">
<polygon fill="#F7931E" points="1079.5,197.5 -0.5,146.5 -0.5,249.5 1079.5,249.5 "/>
<g>
	<polygon fill="#F7931E" points="183.75,102.38 116.85,99.77 126.98,75.18 187.84,74.58 	"/>
	
		<rect x="162.25" y="109.56" transform="matrix(0.9994 0.0339 -0.0339 0.9994 4.3952 -6.5437)" fill="#F7931E" width="66.2" height="33.8"/>
	<polygon fill="#F7931E" points="168.31,132.67 84.74,129.84 91.2,98.85 169.44,101.5 	"/>
	<polygon fill="#F7931E" points="227.67,144.47 168.31,136.23 169.76,93.55 228.81,110.68 	"/>
	<polygon fill="#F7931E" points="168.31,136.23 84.74,133.39 162.77,142.27 227.67,144.47 	"/>
	
		<rect x="79.41" y="126.71" transform="matrix(0.9994 0.0339 -0.0339 0.9994 4.6038 -4.1192)" fill="#F7931E" width="88.96" height="14.23"/>
	<path fill="#F7931E" d="M186.86,140.41c0.29-8.6-1.76-15.85-4.74-17.61l0.01-0.36l-12.45-0.42l0,0.06
		c-3.5,0.49-6.5,8.09-6.82,17.51c-0.32,9.42,2.17,17.2,5.62,17.93l0,0.06l12.45,0.42l0.01-0.36
		C184.04,156.11,186.57,149.02,186.86,140.41z"/>
	<path fill="#F7931E" d="M121.16,135.52c0.29-8.6-1.76-15.85-4.74-17.61l0.01-0.36l-12.45-0.42l0,0.06
		c-3.5,0.49-6.5,8.09-6.82,17.51c-0.32,9.42,2.17,17.2,5.62,17.93l0,0.06l12.45,0.42l0.01-0.36
		C118.33,151.22,120.87,144.12,121.16,135.52z"/>
	<path fill="#F7931E" d="M217.36,133.44l-5.33-0.18c-2.95-0.1-5.55,6.19-5.82,14.04c-0.27,7.86,1.91,14.31,4.85,14.41l5.33,0.18
		c2.95,0.1,5.55-6.19,5.82-14.04C222.48,139.99,220.31,133.54,217.36,133.44z"/>
	<polygon fill="#F7931E" points="217.35,107.62 183.86,97.59 187.52,74.57 215.64,85.31 	"/>
	
		<ellipse transform="matrix(0.1555 -0.9878 0.9878 0.1555 -30.2381 179.4432)" fill="#F7931E" cx="89.83" cy="107.41" rx="6.67" ry="3.05"/>
	<ellipse fill="#F7931E" cx="79.67" cy="132.19" rx="2.67" ry="7.56"/>
	<circle fill="#F7931E" cx="116.14" cy="98.83" r="5.34"/>
	<ellipse fill="#F7931E" cx="157.95" cy="74.81" rx="31.14" ry="6.23"/>
	
		<ellipse transform="matrix(0.1555 -0.9878 0.9878 0.1555 78.7672 250.3968)" fill="#F7931E" cx="185.83" cy="79.13" rx="8.15" ry="31.14"/>
	<ellipse fill="#FFFFFF" cx="178.41" cy="140.19" rx="3.56" ry="12.9"/>
	<ellipse fill="#FFFFFF" cx="216.67" cy="146.98" rx="2.67" ry="9.67"/>
	<circle fill="#FFFFFF" cx="97.46" cy="107.72" r="6.23"/>
	<circle fill="#FFFFFF" cx="156.17" cy="109.5" r="6.23"/>
</g>
<rect x="318" y="108" fill="#F7931E" width="14" height="58"/>
<polygon fill="#F7931E" points="351,173 332,166 332,108 351,115 "/>
<rect x="321" y="82" fill="#F7931E" width="4" height="35"/>
<rect x="35" y="37" fill="#F7931E" width="12" height="142"/>
<rect x="65.94" y="-4.67" transform="matrix(0.3813 0.9245 -0.9245 0.3813 66.4084 -47.9994)" fill="#F7931E" width="6.24" height="60.57"/>
<polygon fill="#F7931E" points="112.76,18.91 92.14,22.91 91.82,10.75 110.47,10 "/>
<ellipse transform="matrix(0.9817 -0.1905 0.1905 0.9817 -2.0151 19.8693)" fill="#F7931E" cx="102.36" cy="20.42" rx="9.5" ry="2.5"/>
<circle fill="#F7931E" cx="41" cy="37" r="6"/>
<polygon fill="#F7931E" points="27,78 41,81 41,59 27,56 "/>
<rect x="52" y="127" fill="#F7931E" width="12" height="29"/>
<rect x="393" y="121" fill="#F7931E" width="6" height="46"/>
<rect x="444" y="139" fill="#F7931E" width="4" height="46"/>
<rect x="487" y="143" fill="#F7931E" width="3" height="51"/>
<polygon fill="#F7931E" points="488,154.54 399,132 399,121 488,150.71 "/>
<rect x="351" y="121" fill="#F7931E" width="42" height="10"/>
<path fill="#F7931E" d="M494,185c0,0,33-14,37-26s0-26,0-28s2-35,2-35l2-18h14l-2,20l-3,20l3,8c0,0,25-10,26-11s1-14,4-17h2
	c0,0,3,21-3,23s-33,16-31,23s3,31,15,33S494,185,494,185z"/>
<polygon fill="#F7931E" points="554.34,52 530.66,52 518.83,72.5 530.66,93 554.34,93 566.17,72.5 "/>
<polygon fill="#F7931E" points="582.2,89 571.8,89 566.61,98 571.8,107 582.2,107 587.39,98 "/>
<polygon fill="#F7931E" points="590.45,98.85 572.58,93.09 568.63,74.74 582.55,62.15 600.42,67.91 604.37,86.26 "/>
<polygon fill="#F7931E" points="577.94,77.15 547.19,80.11 529.25,54.96 542.06,26.85 572.81,23.89 590.75,49.04 "/>
<polygon fill="#F7931E" points="521,78.43 501.74,86.94 484.74,74.51 487,53.57 506.26,45.06 523.26,57.49 "/>
<polygon fill="#F7931E" points="526.87,85.83 517.16,87 511.28,79.17 515.13,70.17 524.84,69 530.72,76.83 "/>
<polygon fill="#F7931E" points="527.64,67.96 503.3,66.19 492.67,44.23 506.36,24.04 530.7,25.81 541.33,47.77 "/>
<polygon fill="#F7931E" points="534.18,79 512.82,79 502.14,97.5 512.82,116 534.18,116 544.86,97.5 "/>
<polygon fill="#F7931E" points="584.19,178.38 574.2,180.92 567.01,173.54 569.81,163.62 579.8,161.08 586.99,168.46 "/>
<polygon fill="#F7931E" points="594.53,187.57 583.97,186.71 579.44,177.14 585.47,168.43 596.03,169.29 600.56,178.86 "/>
<ellipse fill="#F7931E" cx="488.5" cy="143" rx="1.5" ry="1"/>
<polygon fill="#F7931E" points="1080,177 634,150.23 634,142.77 1080,172 "/>
<rect x="634" y="146" fill="#F7931E" width="8" height="34"/>
<rect x="720" y="151" fill="#F7931E" width="8" height="34"/>
<rect x="805" y="158" fill="#F7931E" width="8" height="34"/>
<rect x="888" y="163" fill="#F7931E" width="8" height="34"/>
<rect x="970" y="166" fill="#F7931E" width="8" height="34"/>
<rect x="1058" y="173" fill="#F7931E" width="8" height="34"/>
<polygon fill="#F7931E" points="574,146 566,138 574,138 "/>
<rect x="570" y="123" fill="#F7931E" width="1" height="16"/>
</svg>
