<?xml version="1.0" encoding="utf-8"?>
<!-- Generator: Adobe Illustrator 24.0.1, SVG Export Plug-In . SVG Version: 6.00 Build 0)  -->
<svg version="1.1" id="Layer_1" xmlns="http://www.w3.org/2000/svg" xmlns:xlink="http://www.w3.org/1999/xlink" x="0px" y="0px"
	 viewBox="0 0 1080 250" enable-background="new 0 0 1080 250" xml:space="preserve">
<path fill="#F7931E" d="M-0.5,101.5c0,0,302,164,593,87s354-122,487-122v184H-0.5V101.5z"/>
<path fill="#F7931E" d="M16,119c0,0-15-25-3-39c0,0-6,16,11,39H16z"/>
<path fill="#F7931E" d="M156,174c0,0-15-25-3-39c0,0-6,16,11,39H156z"/>
<path fill="#F7931E" d="M358,220c0,0-15-25-3-39c0,0-6,16,11,39H358z"/>
<path fill="#F7931E" d="M287,112c0,0-15-25-3-39c0,0-6,16,11,39H287z"/>
<path fill="#F7931E" d="M253.35,113c0,0,15.66-25,3.13-39c0,0,6.27,16-11.49,39H253.35z"/>
<path fill="#F7931E" d="M27,123c0,0-11-15-2-30c0,0,0,30,9,30H27z"/>
<path fill="#F7931E" d="M50,135c0,0-11-15-2-30c0,0,0,30,9,30H50z"/>
<path fill="#F7931E" d="M37,128c0,0-17-32,3-46c0,0-15,19,5,46H37z"/>
<path fill="#F7931E" d="M140,181c0,0-17-32,3-46c0,0-15,19,5,46H140z"/>
<path fill="#F7931E" d="M53.91,137.86c0,0-2.88-36.12,21.03-41.02c0,0-21.32,11.47-13.69,44.2L53.91,137.86z"/>
<path fill="#F7931E" d="M540.49,207.38c0,0-26.03-13.13-23.36-31.37c0,0,3.47,16.73,30.13,27.1L540.49,207.38z"/>
<path fill="#F7931E" d="M525.49,217.38c0,0-26.03-13.13-23.36-31.37c0,0,3.47,16.73,30.13,27.1L525.49,217.38z"/>
<path fill="#F7931E" d="M551.93,204.89c0,0-17.31-6.81-17.71-24.3c0,0,16.02,25.36,23.63,20.56L551.93,204.89z"/>
<path fill="#F7931E" d="M577.78,202.76c0,0-17.31-6.81-17.71-24.3c0,0,16.02,25.36,23.63,20.56L577.78,202.76z"/>
<path fill="#F7931E" d="M563.05,203.78c0,0-31.46-17.98-22.03-40.49c0,0-2.54,24.07,28.79,36.22L563.05,203.78z"/>
<path fill="#F7931E" d="M582.61,203.08c0,0-21.73-29-4.12-45.91c0,0-11.89,21.08,12.03,44.68L582.61,203.08z"/>
<path fill="#F7931E" d="M805.49,148.38c0,0-26.03-13.13-23.36-31.37c0,0,3.47,16.73,30.13,27.1L805.49,148.38z"/>
<path fill="#F7931E" d="M828.05,144.78c0,0-31.46-17.98-22.03-40.49c0,0-2.54,24.07,28.79,36.22L828.05,144.78z"/>
<path fill="#F7931E" d="M847.61,144.08c0,0-21.73-29-4.12-45.91c0,0-11.89,21.08,12.03,44.68L847.61,144.08z"/>
<path fill="#F7931E" d="M632.71,196.73c0,0,12.72-21.29,2.47-36.53c0,0,5.15,16.17-9.28,35.23L632.71,196.73z"/>
<path fill="#F7931E" d="M623.35,198.73c0,0,9.33-12.45,1.63-28.15c0,0,0.07,28.48-7.6,27.01L623.35,198.73z"/>
<path fill="#F7931E" d="M603.79,201.37c0,0,9.33-12.45,1.63-28.15c0,0,0.07,28.48-7.6,27.01L603.79,201.37z"/>
<path fill="#F7931E" d="M614.85,201.85c0,0,14.4-27.6-2.66-44.15c0,0,12.82,20.48-4.15,42.85L614.85,201.85z"/>
<path fill="#F7931E" d="M600.47,208.45c0,0,2.37-33.82-18.01-42.37c0,0,18.18,14.37,11.76,44.19L600.47,208.45z"/>
<path fill="#F7931E" d="M357.91,228.86c0,0-2.88-36.12,21.03-41.02c0,0-21.32,11.47-13.69,44.2L357.91,228.86z"/>
<polygon fill="#F7931E" points="113.15,170 78.96,171.22 60.81,142.22 76.85,112 111.04,110.78 129.19,139.78 "/>
<polygon fill="#F7931E" points="314,210 202,210 202,97 308,97 "/>
<ellipse fill="#F7931E" cx="255" cy="97" rx="53" ry="15"/>
<path fill="#F7931E" d="M311.91,170.57c0,0,16.09,38.43,72.09,44.43s-84.87-5-84.87-5L311.91,170.57z"/>
<ellipse fill="#F7931E" cx="308.5" cy="171" rx="12.5" ry="16"/>
<ellipse fill="#F7931E" cx="201.5" cy="181" rx="12.5" ry="16"/>
<path fill="#F7931E" d="M289,90l4-42v32l6-22v20l5-18c0,0,4-12,10-9c0,0-5-1-5,10c0,5-1,36-1,36L289,90z"/>
<polygon fill="#F7931E" points="729.81,141.06 735.18,182.63 701.87,208.06 663.19,191.94 657.82,150.37 691.13,124.94 "/>
<polygon fill="#F7931E" points="771.13,128.03 773.98,150.04 756.34,163.5 735.87,154.97 733.02,132.96 750.66,119.5 "/>
</svg>
