<?xml version="1.0" encoding="utf-8"?>
<!-- Generator: Adobe Illustrator 24.0.1, SVG Export Plug-In . SVG Version: 6.00 Build 0)  -->
<svg version="1.1" xmlns="http://www.w3.org/2000/svg" xmlns:xlink="http://www.w3.org/1999/xlink" x="0px" y="0px"
	 viewBox="0 0 1080 1920" enable-background="new 0 0 1080 1920" xml:space="preserve">
<g id="Layer_2">
</g>
<g id="Layer_1">
	<path fill="#F7931E" d="M0.5,1919.5c0,0,56-27,166-46s197-2,294-16s462-71,471-122s67-499,28-584s-246-158-246-158l-53-108h48
		c0,0,34,84,69,88s208,29,234,59s-38-174-68-200h137v1087H0.5z"/>
	<polygon fill="#F7931E" points="812.04,1732 747.96,1732 715.91,1787.5 747.96,1843 812.04,1843 844.09,1787.5 	"/>
	<polygon fill="#F7931E" points="712.55,1808.09 696.4,1847.89 653.85,1853.81 627.45,1819.91 643.6,1780.11 686.15,1774.19 	"/>
	<path fill="#F7931E" d="M353.5,1879.5c0,0,38-43,23-72c0,0,23,9,4,72H353.5z"/>
	<path fill="#F7931E" d="M394.94,1881.93c0,0,31.4-41.13,12.56-61.89c0,0,23.92,3.29,14.04,57.25L394.94,1881.93z"/>
	<path fill="#F7931E" d="M307.18,1872.73c0,0,50.51-11.24,49.46-39.26c0,0,16.18,17.92-26.12,52.84L307.18,1872.73z"/>
	<ellipse fill="#F7931E" cx="975.5" cy="1420.5" rx="32" ry="53"/>
	<rect x="758" y="988.5" fill="#F7931E" width="6.5" height="188"/>
	<g>
		<polygon fill="#F7931E" points="830.89,1184.71 830.89,1297.5 759.98,1325 		"/>
	</g>
	<g>
		<polygon fill="#F7931E" points="753.32,1200.31 753.32,1325 692.01,1303.13 		"/>
	</g>
	<polygon fill="#F7931E" points="827.92,1181 753.69,1193.62 709.16,1181 	"/>
	<polygon fill="#F7931E" points="818.19,402.83 1096.66,343.85 1286.97,555.52 1198.81,826.17 920.34,885.15 730.03,673.48 	"/>
	<polygon fill="#F7931E" points="662.7,703.55 454.35,623.33 419.64,402.78 593.3,262.45 801.65,342.67 836.36,563.22 	"/>
	<polygon fill="#F7931E" points="701.11,671.7 776.95,773.93 726.35,890.73 599.89,905.3 524.05,803.07 574.65,686.27 	"/>
	<polygon fill="#F7931E" points="569.46,615.18 620.25,679.31 585.38,753.31 499.72,763.19 448.93,699.05 483.8,625.05 	"/>
	<polygon fill="#F7931E" points="949.83,606.26 959.43,787.12 807.6,885.86 646.17,803.74 636.57,622.88 788.4,524.14 	"/>
	<polygon fill="#F7931E" points="646.83,590.26 656.43,771.12 504.6,869.86 343.17,787.74 333.57,606.88 485.4,508.14 	"/>
	<polygon fill="#F7931E" points="737.19,440.83 832.7,201.74 1087.51,164.91 1246.81,367.17 1151.3,606.26 896.49,643.09 	"/>
</g>
</svg>
